<svg xmlns="http://www.w3.org/2000/svg" version="1.1" xmlns:xlink="http://www.w3.org/1999/xlink" width="128" height="128"><svg width="128" height="128" viewBox="0 0 128 128" fill="none" xmlns="http://www.w3.org/2000/svg">
<g clip-path="url(#clip0_1_50)">
<path d="M64 128C99.3462 128 128 99.3462 128 64C128 28.6538 99.3462 0 64 0C28.6538 0 0 28.6538 0 64C0 99.3462 28.6538 128 64 128Z" fill="#FF0000"></path>
<path d="M110.598 69.6073H17.4018C14.1999 69.6073 11.6012 67.0086 11.6012 63.8066C11.6012 60.6047 14.1999 58.006 17.4018 58.006H110.598C113.8 58.006 116.399 60.6047 116.399 63.8066C116.399 67.0086 113.8 69.6073 110.598 69.6073Z" fill="white"></path>
<path d="M59.7578 48.5936H55.6355L39.7187 24.6177V48.5936H35.9058V18.2139H40.0087L55.9256 42.1897V18.2139H59.7578V48.5936Z" fill="#F2F2F2"></path>
<path d="M77.5889 17.6957C81.8427 17.6957 85.3269 19.1342 88.0339 22.0075C90.7408 24.8807 92.0943 28.682 92.0943 33.4037C92.0943 38.1254 90.7408 41.9267 88.0339 44.8C85.3269 47.6732 81.8427 49.1118 77.5889 49.1118C73.3352 49.1118 69.8239 47.6732 67.1014 44.7922C64.379 41.9113 63.0178 38.1177 63.0178 33.4037C63.0178 28.6898 64.379 24.8807 67.1014 22.0075C69.8239 19.1342 73.3197 17.6957 77.5889 17.6957ZM77.5464 45.6739C80.5859 45.6739 83.0763 44.595 85.0176 42.4411C86.9588 40.2871 87.9295 37.2747 87.9295 33.4037C87.9295 29.5328 86.9627 26.5242 85.0292 24.3664C83.0956 22.2085 80.6285 21.1335 77.6315 21.1335C74.6345 21.1335 72.0745 22.2124 70.1178 24.3664C68.161 26.5203 67.1865 29.5328 67.1865 33.4037C67.1865 37.2747 68.161 40.2678 70.11 42.4295C72.059 44.5911 74.5378 45.6739 77.5503 45.6739H77.5464Z" fill="#F2F2F2"></path>
<path d="M70.8602 114.852H65.4385L61.2312 103.811H46.0336L42.0234 114.852H36.9498L50.8867 78.5673H56.0609L70.864 114.852H70.8602ZM59.8197 100.002L53.4351 83.1729L47.3445 100.002H59.8197Z" fill="white"></path>
<path d="M84.0894 114.852H79.2633V78.5673H84.0894V114.852Z" fill="white"></path>
</g>
<defs>
<clipPath id="SvgjsClipPath1001">
<rect width="128" height="128" fill="white"></rect>
</clipPath>
</defs>
</svg><style>@media (prefers-color-scheme: light) { :root { filter: none; } }
@media (prefers-color-scheme: dark) { :root { filter: none; } }
</style></svg>